<svg width="106" height="31" viewBox="0 0 106 31" fill="none" xmlns="http://www.w3.org/2000/svg">
<path fill-rule="evenodd" clip-rule="evenodd" d="M11 3.89555L13.6 11.784L22 13.9266L13.6 16.0691L11 23.3733L8.4 16.0691L0 13.9266L8.4 11.784L11 3.89555Z" fill="#FF6B2E"/>
<path d="M31.4616 25L34.6009 6.09091H38.5987L37.223 14.4283H37.4723L45.6527 6.09091H50.4446L42.0518 14.5575L47.3885 25H42.6058L38.7464 17.2259L36.3643 19.6449L35.4595 25H31.4616ZM53.3207 25.2678C52.422 25.2678 51.6433 25.1108 50.9847 24.7969C50.3323 24.4768 49.8522 24.0028 49.5444 23.375C49.2366 22.7472 49.1597 21.9685 49.3136 21.0391C49.449 20.2512 49.7044 19.5926 50.0799 19.0632C50.4615 18.5277 50.9263 18.0968 51.4741 17.7706C52.0219 17.4444 52.6282 17.1951 53.293 17.0227C53.9639 16.8504 54.6564 16.7334 55.3704 16.6719C56.1952 16.5857 56.8661 16.5026 57.3832 16.4226C57.9064 16.3426 58.2972 16.2287 58.5558 16.081C58.8143 15.9271 58.9712 15.6993 59.0266 15.3977V15.3423C59.119 14.7637 59.0112 14.3144 58.7035 13.9943C58.4019 13.6681 57.9187 13.505 57.2539 13.505C56.5522 13.505 55.9551 13.6589 55.4627 13.9666C54.9764 14.2744 54.6287 14.6652 54.4194 15.1392L50.837 14.8438C51.1571 13.982 51.6403 13.2372 52.2866 12.6094C52.939 11.9754 53.7238 11.4891 54.641 11.1506C55.5581 10.8059 56.5861 10.6335 57.7248 10.6335C58.5127 10.6335 59.2482 10.7259 59.9315 10.9105C60.6209 11.0952 61.2148 11.3814 61.7134 11.7692C62.2182 12.157 62.5813 12.6555 62.8029 13.2649C63.0307 13.8681 63.0768 14.5914 62.9414 15.4347L61.3441 25H57.614L57.9464 23.0334H57.8356C57.534 23.4766 57.1647 23.8674 56.7276 24.206C56.2906 24.5384 55.7889 24.8 55.2227 24.9908C54.6564 25.1754 54.0224 25.2678 53.3207 25.2678ZM54.8995 22.5533C55.4719 22.5533 55.9982 22.4394 56.4783 22.2116C56.9646 21.9777 57.3647 21.6638 57.6786 21.2699C57.9987 20.8759 58.2018 20.4297 58.288 19.9311L58.5281 18.4261C58.4049 18.5062 58.2264 18.5769 57.9925 18.6385C57.7648 18.7 57.5155 18.7585 57.2447 18.8139C56.98 18.8632 56.7122 18.9093 56.4414 18.9524C56.1706 18.9893 55.9274 19.0263 55.712 19.0632C55.238 19.1309 54.8133 19.2386 54.4379 19.3864C54.0624 19.5341 53.7577 19.7341 53.5238 19.9865C53.2899 20.2327 53.1452 20.5405 53.0898 20.9098C53.0037 21.4453 53.1299 21.8546 53.4684 22.1378C53.8131 22.4148 54.2901 22.5533 54.8995 22.5533ZM69.7138 16.8011L68.3473 25H64.4233L66.7869 10.8182H70.5263L70.12 13.3203H70.277C70.7263 12.4893 71.3603 11.8338 72.179 11.3537C73.0038 10.8736 73.9425 10.6335 74.995 10.6335C75.9799 10.6335 76.8016 10.849 77.4602 11.2798C78.125 11.7107 78.5928 12.3232 78.8636 13.1172C79.1406 13.9112 79.1868 14.8622 79.0021 15.9702L77.4879 25H73.5547L74.9489 16.6719C75.0904 15.804 74.9796 15.1269 74.6165 14.6406C74.2595 14.1482 73.6839 13.902 72.8899 13.902C72.3606 13.902 71.8743 14.0159 71.4311 14.2436C70.9879 14.4714 70.6155 14.8037 70.3139 15.2408C70.0185 15.6716 69.8184 16.1918 69.7138 16.8011ZM80.5694 25L82.9331 10.8182H86.7463L86.3308 13.2926H86.4785C86.8848 12.4124 87.4295 11.7476 88.1127 11.2983C88.8021 10.8428 89.5439 10.6151 90.3379 10.6151C90.5349 10.6151 90.7411 10.6274 90.9565 10.652C91.1781 10.6705 91.3751 10.7012 91.5474 10.7443L90.9565 14.2436C90.7842 14.1821 90.5379 14.1328 90.2179 14.0959C89.9039 14.0528 89.6054 14.0312 89.3223 14.0312C88.7498 14.0312 88.2174 14.1574 87.725 14.4098C87.2325 14.656 86.8171 15.0007 86.4785 15.4439C86.1461 15.8871 85.9276 16.398 85.823 16.9766L84.5027 25H80.5694ZM94.8089 25.2678C93.9103 25.2678 93.1316 25.1108 92.473 24.7969C91.8205 24.4768 91.3404 24.0028 91.0327 23.375C90.7249 22.7472 90.648 21.9685 90.8018 21.0391C90.9373 20.2512 91.1927 19.5926 91.5682 19.0632C91.9498 18.5277 92.4145 18.0968 92.9624 17.7706C93.5102 17.4444 94.1165 17.1951 94.7812 17.0227C95.4522 16.8504 96.1446 16.7334 96.8587 16.6719C97.6835 16.5857 98.3544 16.5026 98.8714 16.4226C99.3946 16.3426 99.7855 16.2287 100.044 16.081C100.303 15.9271 100.46 15.6993 100.515 15.3977V15.3423C100.607 14.7637 100.5 14.3144 100.192 13.9943C99.8902 13.6681 99.407 13.505 98.7422 13.505C98.0405 13.505 97.4434 13.6589 96.951 13.9666C96.4647 14.2744 96.117 14.6652 95.9077 15.1392L92.3253 14.8438C92.6454 13.982 93.1286 13.2372 93.7749 12.6094C94.4273 11.9754 95.2121 11.4891 96.1293 11.1506C97.0464 10.8059 98.0743 10.6335 99.2131 10.6335C100.001 10.6335 100.737 10.7259 101.42 10.9105C102.109 11.0952 102.703 11.3814 103.202 11.7692C103.706 12.157 104.07 12.6555 104.291 13.2649C104.519 13.8681 104.565 14.5914 104.43 15.4347L102.832 25H99.1023L99.4347 23.0334H99.3239C99.0223 23.4766 98.6529 23.8674 98.2159 24.206C97.7789 24.5384 97.2772 24.8 96.7109 24.9908C96.1446 25.1754 95.5107 25.2678 94.8089 25.2678ZM96.3878 22.5533C96.9602 22.5533 97.4865 22.4394 97.9666 22.2116C98.4529 21.9777 98.853 21.6638 99.1669 21.2699C99.487 20.8759 99.6901 20.4297 99.7763 19.9311L100.016 18.4261C99.8932 18.5062 99.7147 18.5769 99.4808 18.6385C99.2531 18.7 99.0038 18.7585 98.733 18.8139C98.4683 18.8632 98.2005 18.9093 97.9297 18.9524C97.6589 18.9893 97.4157 19.0263 97.2003 19.0632C96.7263 19.1309 96.3016 19.2386 95.9261 19.3864C95.5507 19.5341 95.246 19.7341 95.0121 19.9865C94.7782 20.2327 94.6335 20.5405 94.5781 20.9098C94.492 21.4453 94.6181 21.8546 94.9567 22.1378C95.3014 22.4148 95.7784 22.5533 96.3878 22.5533Z" fill="#0B1130"/>
</svg>
